# AST/ASF file generated using VICON BodyLanguage
# -----------------------------------------------
:version 1.10
:name VICON
:units
  mass 1.0
  length 0.45
  angle deg
:documentation
   .ast/.asf automatically generated from VICON data using
   VICON BodyBuilder and BodyLanguage model FoxedUp or BRILLIANT.MOD
:root
   order TX TY TZ RX RY RZ
   axis XYZ
   position 0 0 0  
   orientation 0 0 0 
:bonedata
  begin
     id 1 
     name lhipjoint
     direction 0.660183 -0.676772 0.325788 
     length 2.75133 
     axis 0 0 0  XYZ
  end
  begin
     id 2 
     name lfemur
     direction 0.34202 -0.939693 0  
     length 7.70317  
     axis 0 0 20  XYZ
    dof rx ry rz
    limits (-160.0 20.0)
           (-70.0 70.0)
           (-60.0 70.0)
  end
  begin
     id 3 
     name ltibia
     direction 0.342105 -0.939662 0   
     length 7.18701   
     axis 0 0 20   XYZ
    dof rx
    limits (-10.0 170.0)
  end
  begin
     id 4 
     name lfoot
     direction 0.14163 -0.389126 0.910232   
     length 2.41719   
     axis -90 7.62852e-016 20   XYZ
    dof rx rz
    limits (-45.0 90.0)
           (-70.0 20.0)
  end
  begin
     id 5 
     name ltoes
     direction 1.53533e-011 -4.21926e-011 1   
     length 1.18611   
     axis -90 7.62852e-016 20   XYZ
    dof rx
    limits (-90.0 20.0)
  end
  begin
     id 6 
     name rhipjoint
     direction -0.6658 -0.67229 0.323631   
     length 2.76968  
     axis 0 0 0  XYZ 
  end
  begin
     id 7 
     name rfemur
     direction -0.34202 -0.939693 0   
     length 7.92547   
     axis 0 0 -20   XYZ
    dof rx ry rz
    limits (-160.0 20.0)
           (-70.0 70.0)
           (-70.0 60.0)
  end
  begin
     id 8 
     name rtibia
     direction -0.342022 -0.939692 0   
     length 7.22641   
     axis 0 0 -20   XYZ
    dof rx
    limits (-10.0 170.0)
 end
 begin
     id 9 
     name rfoot
     direction -0.105675 -0.29034 0.951071   
     length 2.48149  
     axis -90 -7.62852e-016 -20   XYZ
    dof rx rz
    limits (-45.0 90.0)
           (-20.0 70.0)
  end
  begin
     id 10 
     name rtoes
     direction -1.5349e-011 -4.21859e-011 1   
     length 1.23343   
     axis -90 -7.62852e-016 -20   XYZ
    dof rx
    limits (-90.0 20.0)
  end
  begin
     id 11 
     name lowerback
     direction 0.0104173 0.993624 -0.112266   
     length 2.00527   
     axis 0 0 0   XYZ
    dof rx ry rz
    limits (-20.0 45.0)
           (-30.0 30.0)
           (-30.0 30.0)
  end
  begin
     id 12 
     name upperback
     direction 0.00733149 0.999856 -0.0152913   
     length 2.01385   
     axis 0 0 0   XYZ
    dof rx ry rz
    limits (-20.0 45.0)
           (-30.0 30.0)
           (-30.0 30.0)
  end
  begin
     id 13 
     name thorax
     direction 0.0026304 0.999318 0.036841   
     length 2.03734   
     axis 0 0 0   XYZ
    dof rx ry rz
    limits (-20.0 45.0)
           (-30.0 30.0)
           (-30.0 30.0)
  end
  begin
     id 14 
     name lowerneck
     direction 0.0293154 0.998757 0.0403082   
     length 1.65303   
     axis 0 0 0   XYZ
    dof rx ry rz
    limits (-20.0 45.0)
           (-30.0 30.0)
           (-30.0 30.0)
  end
  begin
     id 15 
     name upperneck
     direction -0.0376619 0.998184 -0.0470083   
     length 1.60926   
     axis 0 0 0   XYZ
    dof rx ry rz
    limits (-20.0 45.0)
           (-30.0 30.0)
           (-30.0 30.0)
  end
  begin
     id 16
     name head
     direction -0.0170133 0.999635 -0.0209778  
     length 1.73625  
     axis 0 0 0   XYZ
    dof rx ry rz
    limits (-20.0 45.0)
           (-30.0 30.0)
           (-30.0 30.0)
  end
  begin
     id 17 
     name lclavicle
     direction 0.919857 0.39181 -0.0186333  
     length 3.75313  
     axis 0 0 0   XYZ
    dof ry rz
    limits (-20.0 10.0)
           (0.0 20.0)
  end
  begin
     id 18 
     name lhumerus
     direction 1 -4.48988e-011 1.44029e-027   
     length 5.49313   
     axis 180 -30 -90   XYZ
    dof rx ry rz
    limits (-60.0 90.0)
           (-90.0 90.0)
           (-90.0 90.0)
  end
  begin
     id 19
     name lradius
     direction 1 -4.48924e-011 7.46281e-027   
     length 3.29037   
     axis 180 -30 -90   XYZ
    dof rx
    limits (-10.0 170.0)
  end
  begin
     id 20
     name lwrist
     direction 1 -4.48955e-011 2.19879e-026   
     length 1.64519   
     axis -1.34358e-014 90 90   XYZ
    dof ry
    limits (-180.0 0.0)
 end
  begin
     id 21 
     name lhand
     direction 1 -4.48978e-011 4.39747e-026   
     length 0.729656   
     axis -2.80598e-014 90 90   XYZ
    dof rx rz
    limits (-90.0 90.0)
           (-45.0 45.0)
  end
  begin
     id 22 
     name lfingers
     direction 1 -4.49071e-011 8.79411e-026   
     length 0.588268   
     axis -5.61193e-014 90 90   XYZ
    dof rx
    limits (0.0 90.0)
  end
  begin
     id 23
     name lthumb
     direction 0.707107 -6.34817e-011 0.707107   
     length 0.844638   
     axis -90 45 -9.86923e-015   XYZ
    dof rx rz
    limits (-45.0 45.0)
           (-45.0 45.0)
  end
  begin
     id 24 
     name rclavicle
     direction -0.919898 0.388279 0.0550233   
     length 3.7171  
     axis 0 0 0   XYZ 
    dof ry rz
    limits (-10.0 20.0)
           (-20.0 0.0)
  end
  begin
     id 25 
     name rhumerus
     direction -1 -4.48968e-011 9.98372e-028  
     length 5.23684   
     axis 180 30 90   XYZ
    dof rx ry rz
    limits (-90.0 60.0)
           (-90.0 90.0)
           (-90.0 90.0)
  end
  begin
     id 26 
     name rradius
     direction -1 -4.48956e-011 1.01023e-026   
     length 3.38251   
     axis 180 30 90   XYZ
    dof rx
    limits (-10.0 170.0)
  end
  begin
     id 27 
     name rwrist
     direction -1 -4.4892e-011 2.19886e-026   
     length 1.69126   
     axis -1.34358e-014 -90 -90   XYZ
    dof ry
    limits (-180.0 0.0)
  end
  begin
     id 28
     name rhand
     direction -1 -4.49024e-011 4.39727e-026   
     length 0.691454   
     axis -2.80598e-014 -90 -90   XYZ
    dof rx rz
    limits (-90.0 90.0)
           (-45.0 45.0)
  end
  begin
     id 29
     name rfingers
     direction -1 -4.49097e-011 8.79388e-026   
     length 0.557468   
     axis -5.61193e-014 -90 -90   XYZ
    dof rx
    limits (0.0 90.0)
  end
  begin
     id 30
     name rthumb
     direction -0.707107 -6.34938e-011 0.707107   
     length 0.800416   
     axis -90 -45 9.86923e-015   XYZ
    dof rx rz
    limits (-45.0 45.0)
           (-45.0 45.0)
  end
:hierarchy
  begin
    root lhipjoint rhipjoint lowerback
    lhipjoint lfemur
    lfemur ltibia
    ltibia lfoot
    lfoot ltoes
    rhipjoint rfemur
    rfemur rtibia
    rtibia rfoot
    rfoot rtoes
    lowerback upperback
    upperback thorax
    thorax lowerneck lclavicle rclavicle
    lowerneck upperneck
    upperneck head
    lclavicle lhumerus
    lhumerus lradius
    lradius lwrist
    lwrist lhand lthumb
    lhand lfingers
    rclavicle rhumerus
    rhumerus rradius
    rradius rwrist
    rwrist rhand rthumb
    rhand rfingers
  end

#!OML:ASF H:\BabyWalks\Project 1\Capture day 1\Session 1\baby.ASF
:FULLY-SPECIFIED
:DEGREES
73
root -23.8925 17.6626 -21.4483 -33.9159 85.1726 -42.4939
lowerback 15.8932 1.20578 -5.45606
upperback 7.05544 1.1768 -0.113374
thorax -1.48316 0.639937 2.76068
lowerneck -3.80456 1.01644 3.19812
upperneck -7.62684 1.49889 0.794135
head -1.71252 0.72186 -0.292968
rclavicle 4.77083e-015 -1.66979e-014
rhumerus -49.1522 17.5354 -89.6964
rradius 53.1458
rwrist -6.43972
rhand -18.7617 -18.1421
rfingers 7.12502
rthumb 7.53516 -47.9879
lclavicle 4.77083e-015 -1.66979e-014
lhumerus -52.8583 -6.89289 79.6042
lradius 46.1757
lwrist -2.46193
lhand 6.31099 5.47561
lfingers 7.12502
lthumb 31.6196 32.7571
rfemur -3.13239 10.277 21.1915
rtibia 42.9153
rfoot -2.81728 14.989
rtoes -25.7903
lfemur -26.756 -2.29321 -14.9242
ltibia 39.236
lfoot -23.5568 -6.92958
ltoes 0.0481067
74
root -23.7428 17.6609 -21.4515 -31.4336 85.3414 -39.9721
lowerback 15.9446 1.11492 -5.82577
upperback 7.03812 0.997158 -0.344745
thorax -1.50999 0.549411 2.75553
lowerneck -3.65445 1.06511 3.19836
upperneck -7.5783 1.57055 0.880626
head -1.72238 0.75493 -0.267265
rclavicle -7.95139e-016 2.94201e-014
rhumerus -49.3915 17.4453 -90.0291
rradius 53.0253
rwrist -6.11871
rhand -19.4221 -18.692
rfingers 7.12502
rthumb 6.8977 -48.5596
lclavicle -7.95139e-016 2.94201e-014
lhumerus -51.1537 -6.45525 78.7932
lradius 45.3078
lwrist -4.46668
lhand 5.88145 5.00094
lfingers 7.12502
lthumb 31.2104 32.3621
rfemur -4.56945 10.1321 20.7002
rtibia 45.7595
rfoot -3.38125 14.8345
rtoes -26.85
lfemur -26.0673 -2.15104 -15.3489
ltibia 39.0685
lfoot -23.9863 -6.99764
ltoes 0.0565228
75
root -23.5928 17.6638 -21.4552 -30.062 85.518 -38.5929
lowerback 15.9839 0.978866 -6.04536
upperback 7.00242 0.778608 -0.564128
thorax -1.54599 0.442484 2.68496
lowerneck -3.52411 1.12178 3.20212
upperneck -7.49405 1.65201 0.984451
head -1.71748 0.792958 -0.236468
rclavicle -2.78299e-015 -6.36111e-015
rhumerus -49.6624 17.3639 -90.371
rradius 52.9083
rwrist -5.72455
rhand -19.8639 -19.0638
rfingers 7.12502
rthumb 6.4712 -48.945
lclavicle -2.78299e-015 -6.36111e-015
lhumerus -49.4397 -5.83969 77.8942
lradius 44.5928
lwrist -6.56363
lhand 5.34344 4.50761
lfingers 7.12502
lthumb 30.6975 31.9663
rfemur -5.98631 9.87389 20.2969
rtibia 48.3325
rfoot -4.1241 14.4718
rtoes -27.1763
lfemur -25.3636 -2.09745 -15.6719
ltibia 38.7869
lfoot -24.3399 -7.07563
ltoes 0.122139
76
root -23.4429 17.6714 -21.4593 -29.7149 85.7295 -38.2571
lowerback 16.0351 0.796757 -6.15404
upperback 6.95295 0.51362 -0.772139
thorax -1.59959 0.315026 2.57174
lowerneck -3.44361 1.18573 3.2072
upperneck -7.36316 1.74124 1.11035
head -1.68928 0.83538 -0.198402
rclavicle -5.1684e-015 -1.27222e-014
rhumerus -49.9604 17.2997 -90.7139
rradius 52.7844
rwrist -5.24943
rhand -20.1054 -19.2019
rfingers 7.12502
rthumb 6.23806 -49.0901
lclavicle -5.1684e-015 -1.27222e-014
lhumerus -47.7573 -5.06646 76.9569
lradius 44.0863
lwrist -8.58913
lhand 4.62855 4.07438
lfingers 7.12502
lthumb 30.0156 31.6588
rfemur -7.38637 9.50528 19.9594
rtibia 50.6519
rfoot -4.94194 14.0011
rtoes -26.8618
lfemur -24.6509 -2.14682 -15.9243
ltibia 38.4276
lfoot -24.6372 -7.14717
ltoes 0.196429
77
root -23.2907 17.6936 -21.4636 -30.4305 85.9728 -38.9975
lowerback 16.1036 0.576638 -6.17538
upperback 6.89186 0.20934 -0.96054
thorax -1.67313 0.16995 2.43692
lowerneck -3.4126 1.25414 3.20405
upperneck -7.19353 1.83477 1.25934
head -1.64061 0.880775 -0.151208
rclavicle -3.97569e-016 8.74653e-015
rhumerus -50.2883 17.2495 -91.037
rradius 52.6634
rwrist -4.74778
rhand -20.1242 -19.091
rfingers 7.12502
rthumb 6.21994 -48.9797
lclavicle -3.97569e-016 8.74653e-015
lhumerus -46.1382 -4.19775 76.0539
lradius 43.8219
lwrist -10.3608
lhand 3.64813 3.69328
lfingers 7.12502
lthumb 29.0797 31.4433
rfemur -8.74126 9.04994 19.6894
rtibia 52.6635
rfoot -5.87837 13.4563
rtoes -26.2826
lfemur -23.8911 -2.29109 -16.1151
ltibia 37.9649
lfoot -24.879 -7.20647
ltoes 0.270769
78
root -23.1415 17.7108 -21.4671 -32.3072 86.248 -40.9094
lowerback 16.1964 0.325568 -6.13761
upperback 6.81932 -0.129263 -1.12096
thorax -1.77135 0.00909857 2.30477
lowerneck -3.42534 1.32397 3.18207
upperneck -6.99326 1.92887 1.42985
head -1.57536 0.927545 -0.0937256
rclavicle 3.18055e-015 -3.97569e-015
rhumerus -50.6473 17.2192 -91.3274
rradius 52.5469
rwrist -4.26156
rhand -19.9327 -18.7375
rfingers 7.12502
rthumb 6.40478 -48.6207
lclavicle 3.18055e-015 -3.97569e-015
lhumerus -44.6195 -3.31254 75.2542
lradius 43.8328
lwrist -11.7113
lhand 2.31188 3.44837
lfingers 7.12502
lthumb 27.8028 31.4117
rfemur -10.091 8.52821 19.4802
rtibia 54.4015
rfoot -6.90772 12.9203
rtoes -25.7241
lfemur -23.1471 -2.52039 -16.2491
ltibia 37.4414
lfoot -25.0392 -7.26524
ltoes 0.316842
79
root -22.9931 17.7327 -21.4694 -35.5765 86.5318 -44.218
lowerback 16.3187 0.0563936 -6.05339
upperback 6.73553 -0.487231 -1.24351
thorax -1.89828 -0.16054 2.19077
lowerneck -3.47648 1.38977 3.14581
upperneck -6.76562 2.01505 1.60309
head -1.49552 0.971553 -0.0326184
rclavicle 4.77083e-015 1.43125e-014
rhumerus -51.0363 17.2058 -91.5689
rradius 52.4413
rwrist -3.86341
rhand -19.5231 -18.2117
rfingers 7.12502
rthumb 6.8002 -48.0825
lclavicle 4.77083e-015 1.43125e-014
lhumerus -43.2254 -2.50419 74.6159
lradius 44.1428
lwrist -12.5044
lhand 0.63575 3.35304
lfingers 7.12502
lthumb 26.1992 31.5649
rfemur -11.4044 7.97475 19.3461
rtibia 55.8192
rfoot -7.90566 12.4639
rtoes -25.0915
lfemur -22.3851 -2.81639 -16.3233
ltibia 36.8442
lfoot -25.1257 -7.32889
ltoes 0.335522
